<svg xmlns="http://www.w3.org/2000/svg" viewBox="0 0 400 400"><title>vmw-ico-vsphere-vcenter-server-rgb_400px_source</title><path d="M62.844,78.27V255.8a15.458,15.458,0,0,0,15.44,15.442h22.332v16H78.284A31.476,31.476,0,0,1,46.844,255.8V78.27a31.476,31.476,0,0,1,31.44-31.44H251.5a31.476,31.476,0,0,1,31.44,31.44V96.324h-16V78.27A15.457,15.457,0,0,0,251.5,62.83H78.284A15.457,15.457,0,0,0,62.844,78.27Zm84.705,258.37a15.457,15.457,0,0,1-15.441-15.44V143.673a15.459,15.459,0,0,1,15.441-15.441H320.76a15.457,15.457,0,0,1,15.44,15.441V174.1a62.463,62.463,0,0,1,16-5.792V143.673a31.476,31.476,0,0,0-31.44-31.441H147.549a31.476,31.476,0,0,0-31.441,31.441V321.2a31.476,31.476,0,0,0,31.441,31.44h20.187a62.4,62.4,0,0,1,5.839-16Z" fill="#0091da"/><path d="M168.818,384H68.078A52.138,52.138,0,0,1,16,331.922V68.078A52.138,52.138,0,0,1,68.078,16H172.643l16-16H68.078A68.156,68.156,0,0,0,0,68.078V331.922A68.156,68.156,0,0,0,68.078,400H175.937l.086-.086A62.4,62.4,0,0,1,168.818,384Z" fill="#00c1d5"/><path d="M384,68.078V169.6a62.421,62.421,0,0,1,16,7.476V68.078A68.156,68.156,0,0,0,331.922,0H224.044l-16,16H331.922A52.137,52.137,0,0,1,384,68.078Z" fill="#78be20"/><path d="M365.574,399.363a33.2,33.2,0,0,1-28.447-50.313l-22.472-22.472a33.288,33.288,0,0,1-34.267,0L257.916,349.05a33.214,33.214,0,1,1-11.32-11.307l22.484-22.486a33.317,33.317,0,0,1,0-34.253L246.6,258.519A33.2,33.2,0,1,1,257.909,247.2L280.4,269.69a33.322,33.322,0,0,1,34.253,0L337.134,247.2a33.255,33.255,0,0,1,4.968-40.6h0a33.183,33.183,0,1,1,6.338,51.921L325.969,281a33.29,33.29,0,0,1,0,34.268l22.471,22.471a33.2,33.2,0,1,1,17.134,61.627Zm0-50.375a17.2,17.2,0,1,0,12.159,5.037A17.082,17.082,0,0,0,365.574,348.988ZM229.469,349a17.18,17.18,0,1,0,12.159,5.028h0A17.141,17.141,0,0,0,229.469,349Zm55.893-63.026a17.2,17.2,0,1,0,24.318,0,17.216,17.216,0,0,0-24.318,0Zm80.212-73.089a17.082,17.082,0,0,0-12.158,5.036h0a17.194,17.194,0,1,0,12.158-5.037Zm-136.105.009a17.187,17.187,0,1,0,12.158,5.028A17.134,17.134,0,0,0,229.469,212.891Z" fill="#1d428a"/></svg>