<svg id="Calque_1" data-name="Calque 1" xmlns="http://www.w3.org/2000/svg" viewBox="0 0 406.58 406.54"><defs><style>.cls-1{fill:#314a55;}.cls-2{fill:#406170;}.cls-3{fill:#abbec6;}.cls-4{fill:#003343;}.cls-5{fill:#fdfdfd;}</style></defs><path class="cls-1" d="M0,203.27C.06,91.11,91.1.07,203.26,0S406.75,91.45,406.58,203.35c-.17,112.29-91.39,203.28-203.34,203.19C91,406.46-.06,315.31,0,203.27ZM297,378.38c.58-.18,1.26-.23,1.47-1a2.2,2.2,0,0,0,1.34-.44c4.1-2.31,8.14-4.72,12.06-7.31a201.89,201.89,0,0,0,18.68-13.86q5.64-4.73,10.93-9.81c2.19-2.1,4.26-4.32,6.37-6.49,2.59-2.67,5-5.47,7.42-8.28a184.21,184.21,0,0,0,11.78-15.46,199.34,199.34,0,0,0,14.09-23.87,189.54,189.54,0,0,0,8.41-19.28,38,38,0,0,0,2.23-6.92c.5-.37.51-1,.68-1.49a195.88,195.88,0,0,0,8.71-42.94,203.73,203.73,0,0,0,.49-29.44,197.46,197.46,0,0,0-3.22-26.11,85.3,85.3,0,0,0-2.35-10.24,3,3,0,0,0,0-.6,200,200,0,0,0-7.47-23.43,194.84,194.84,0,0,0-10.07-21.82c-1.53-2.84-3.1-5.66-4.78-8.42a209.73,209.73,0,0,0-13.28-19.4,212,212,0,0,0-14.77-17c-2.24-2.33-4.62-4.53-6.94-6.77-3-2.88-6.14-5.58-9.32-8.22-4.37-3.64-8.93-7-13.63-10.26a212.41,212.41,0,0,0-23.44-13.89c-3.9-2-7.93-3.74-11.95-5.49a186.44,186.44,0,0,0-26-8.93,208.62,208.62,0,0,0-37.65-6.28c-4.14-.33-8.29-.06-12.42-.45-2.35-.23-4.69.28-7,.24-1.75,0-3.5.07-5.25.16-5.2.3-10.37.82-15.53,1.48C171,7,165.52,8.06,160.06,9.25A192.31,192.31,0,0,0,132,17.72a200.09,200.09,0,0,0-24.47,11.45c-5.2,2.87-10.3,5.92-15.2,9.26A195.5,195.5,0,0,0,76,50.72q-5.72,4.81-11.1,10c-2.1,2-4.1,4.13-6.11,6.25-2.8,3-5.46,6-8.09,9.11A180.76,180.76,0,0,0,37.84,93.24a196.43,196.43,0,0,0-15.7,28.31c-2.41,5.35-4.66,10.75-6.56,16.3a162.25,162.25,0,0,0-4.91,16.47,1.06,1.06,0,0,0-.12.2,196.22,196.22,0,0,0-5.36,32.29,200.45,200.45,0,0,0-.61,20.94,203,203,0,0,0,1.6,21.36,192.11,192.11,0,0,0,6.43,30.39A47.11,47.11,0,0,0,15,266.61a55.57,55.57,0,0,0,2.84,8.23A203,203,0,0,0,29.29,299.3c2.83,5.13,5.85,10.15,9.14,15a197.71,197.71,0,0,0,12.29,16.28c3.24,3.83,6.58,7.57,10.06,11.18,3.77,3.9,7.74,7.59,11.81,11.17q5.66,5,11.66,9.47a184.19,184.19,0,0,0,18.9,12.54,73.28,73.28,0,0,0,9.17,4.9c.21.38.63.48,1,.65,2.44,1.2,4.87,2.4,7.33,3.54a195,195,0,0,0,65.86,17.34,197.05,197.05,0,0,0,28.75.33,201.59,201.59,0,0,0,33.15-4.79,194.82,194.82,0,0,0,40.87-14.4A68.11,68.11,0,0,0,297,378.38Z"/><path class="cls-2" d="M10.67,154.32a162.25,162.25,0,0,1,4.91-16.47c1.9-5.55,4.15-10.95,6.56-16.3a196.43,196.43,0,0,1,15.7-28.31A180.76,180.76,0,0,1,50.7,76.06C53.33,73,56,69.9,58.79,67c2-2.12,4-4.23,6.11-6.25q5.38-5.16,11.1-10A195.5,195.5,0,0,1,92.28,38.43c4.9-3.34,10-6.39,15.2-9.26A200.09,200.09,0,0,1,132,17.72a192.31,192.31,0,0,1,28.11-8.47c5.46-1.19,11-2.21,16.52-2.91,5.16-.66,10.33-1.18,15.53-1.48,1.75-.09,3.5-.19,5.25-.16,2.35,0,4.69-.47,7-.24,4.13.39,8.28.12,12.42.45a208.62,208.62,0,0,1,37.65,6.28,186.44,186.44,0,0,1,26,8.93c4,1.75,8.05,3.49,11.95,5.49A212.41,212.41,0,0,1,315.83,39.5c4.7,3.22,9.26,6.62,13.63,10.26,3.18,2.64,6.33,5.34,9.32,8.22,2.32,2.24,4.7,4.44,6.94,6.77a212,212,0,0,1,14.77,17,209.73,209.73,0,0,1,13.28,19.4c1.68,2.76,3.25,5.58,4.78,8.42a194.84,194.84,0,0,1,10.07,21.82,200,200,0,0,1,7.47,23.43,3,3,0,0,1,0,.6l-27.88,7.23q-33.78,8.75-67.56,17.49c-4.47,1.16-8.95,2.26-13.43,3.39l-.07-9.78,7.31,0c.35,0,.75.12,1-.19.51-.58,0-3-.7-3.35l-14-6.86-26.34-12.93-26.88-13.2q-10.69-5.26-21.37-10.56a1.84,1.84,0,0,0-1.88,0c-3.72,1.86-7.45,3.67-11.18,5.5l-26.88,13.19-26.88,13.2c-7.66,3.78-15.3,7.61-23,11.31a2.42,2.42,0,0,0-1.71,2.75c.09.86.25,1.18,1.16,1.16,2.68-.05,5.35,0,8,0l-.09,9.76-16.31-4.22L33.59,160.2Z"/><path class="cls-3" d="M10.67,154.32l22.92,5.88,73.93,19.14,16.31,4.22c0,.4,0,.8,0,1.2v58.62c0,.4,0,.8,0,1.2-5.16,1-10.32,2-15.48,3.08L65.12,256.4l-39.72,8c-3.47.7-6.94,1.45-10.41,2.17a47.11,47.11,0,0,1-2.38-7.11,192.11,192.11,0,0,1-6.43-30.39,203,203,0,0,1-1.6-21.36,200.45,200.45,0,0,1,.61-20.94,196.22,196.22,0,0,1,5.36-32.29A1.06,1.06,0,0,1,10.67,154.32Z"/><path class="cls-3" d="M287.26,183.58c4.48-1.13,9-2.23,13.43-3.39l67.56-17.49,27.88-7.23a85.3,85.3,0,0,1,2.35,10.24,197.46,197.46,0,0,1,3.22,26.11,203.73,203.73,0,0,1-.49,29.44,195.88,195.88,0,0,1-8.71,42.94c-.17.52-.18,1.12-.68,1.49-2.18-.47-4.36-.95-6.54-1.39l-40.75-8.24-43.45-8.78c-4.6-.92-9.21-1.81-13.82-2.71,0-.52,0-1,0-1.56V191.13C287.23,188.61,287.25,186.1,287.26,183.58Z"/><path class="cls-2" d="M15,266.61c3.47-.72,6.94-1.47,10.41-2.17l39.72-8,43.24-8.74c5.16-1,10.32-2,15.48-3.08L123.9,256c-13.58,0-27.16,0-40.74,0-1,0-1.28.27-1.27,1.27,0,5.15,0,10.3,0,15.46,0,2.23,0,2.23-2.18,2.23-2.39,0-2.35,0-2.4,2.4a1.59,1.59,0,0,0,1.06,1.75c1.12.5,2.18,1.15,3.28,1.71l25.12,12.93c5.18,2.67,10.35,5.35,15.54,8,.56.28.94.57.84,1.25-.45.29-.33.79-.39,1.19-.54,3.75-1,7.51-1.54,11.26l-3.33,24.4c-.69,3.14-1,6.34-1.45,9.51-.64,4.16-1.16,8.33-1.77,12.49-.75,5.18-1.54,10.35-2.3,15.53-.05.34-.14.73.24,1l-.32,1.43a73.28,73.28,0,0,1-9.17-4.9,184.19,184.19,0,0,1-18.9-12.54q-6-4.5-11.66-9.47c-4.07-3.58-8-7.27-11.81-11.17-3.48-3.61-6.82-7.35-10.06-11.18a197.71,197.71,0,0,1-12.29-16.28c-3.29-4.83-6.31-9.85-9.14-15a203,203,0,0,1-11.46-24.46A55.57,55.57,0,0,1,15,266.61Z"/><path class="cls-2" d="M287.26,244.57c4.61.9,9.22,1.79,13.82,2.71l43.45,8.78,40.75,8.24c2.18.44,4.36.92,6.54,1.39a38,38,0,0,1-2.23,6.92,189.54,189.54,0,0,1-8.41,19.28,199.34,199.34,0,0,1-14.09,23.87,184.21,184.21,0,0,1-11.78,15.46c-2.41,2.81-4.83,5.61-7.42,8.28-2.11,2.17-4.18,4.39-6.37,6.49q-5.29,5.08-10.93,9.81a201.89,201.89,0,0,1-18.68,13.86c-3.92,2.59-8,5-12.06,7.31a2.2,2.2,0,0,1-1.34.44c-.24-1.65-.49-3.3-.72-5-.66-4.75-1.31-9.51-2-14.26s-1.36-9.66-2.13-14.47c-.2-1.27-.09-2.61-.76-3.79a50.62,50.62,0,0,0-.72-6q-1.72-12.84-3.56-25.66c-.25-1.75-.19-3.56-.93-5.22a1.34,1.34,0,0,1,.95-1.55c1.73-.82,3.4-1.76,5.11-2.63l21.86-11.18q8.44-4.29,16.88-8.58c.6-.3,1-.57,1-1.39,0-2.7,0-2.7-2.71-2.7a4.71,4.71,0,0,0-.84,0c-1,.15-1.28-.26-1.27-1.26.06-5.39-.06-10.78.22-16.16.08-1.53,0-1.53-1.57-1.53l-40.16,0C287.23,252.21,287.24,248.39,287.26,244.57Z"/><path class="cls-4" d="M292.91,339.94c.67,1.18.56,2.52.76,3.79.77,4.81,1.45,9.64,2.13,14.47s1.33,9.51,2,14.26c.23,1.65.48,3.3.72,5-.21.74-.89.79-1.47,1H112.64c-.38-.25-.29-.64-.24-1,.76-5.18,1.55-10.35,2.3-15.53.61-4.16,1.13-8.33,1.77-12.49.48-3.17.76-6.37,1.45-9.51.52,0,1,.05,1.56.05H292.91Z"/><path class="cls-5" d="M112.64,378.39H297a68.11,68.11,0,0,1-7.79,4.11,194.82,194.82,0,0,1-40.87,14.4,201.59,201.59,0,0,1-33.15,4.79,197.05,197.05,0,0,1-28.75-.33A195,195,0,0,1,120.62,384c-2.46-1.14-4.89-2.34-7.33-3.54-.34-.17-.76-.27-1-.65Z"/><path class="cls-4" d="M123.92,173.8c-2.68,0-5.35-.05-8,0-.91,0-1.07-.3-1.16-1.16a2.42,2.42,0,0,1,1.71-2.75c7.7-3.7,15.34-7.53,23-11.31l26.88-13.2,26.88-13.19c3.73-1.83,7.46-3.64,11.18-5.5a1.84,1.84,0,0,1,1.88,0q10.67,5.31,21.37,10.56l26.88,13.2,26.34,12.93,14,6.86c.69.33,1.21,2.77.7,3.35-.27.31-.67.18-1,.19l-7.31,0H123.92Z"/><path class="cls-5" d="M123.92,173.8H287.19l.07,9.78c0,2.52,0,5,0,7.55V243c0,.52,0,1,0,1.56,0,3.82,0,7.64-.05,11.46-1.24,0-2.48.07-3.72.07H207.12l-26.86,0-56.36,0-.06-11.46c0-.4,0-.8,0-1.2V184.76c0-.4,0-.8,0-1.2Zm108,59.54c0-.39.08-.79.08-1.19q0-16.52,0-33c0-.4,0-.8-.06-1.2,0-6.3,0-12.61.05-18.92,0-.89-.39-.94-1.08-.94-4.91,0-9.82,0-14.73,0H180.39c-.6,0-1.13-.14-1.12.86.06,6.34,0,12.69,0,19,0,5.35,0,10.7,0,16.05q0,9.64,0,19.28c0,4.57,0,9.14,0,13.71,0,1.22-.55,2.87.26,3.53s2.43.2,3.69.15c.6,0,1.2,0,1.8,0h39.8c1.2,0,2.39,0,3.59,0,.91,0,1.83,0,2.74.05.62,0,.83-.19.83-.81C232,244.4,232,238.87,232,233.34Zm4.75-36.84c0,.15,0,.31,0,.47v36.34c0,.35-.09.73.19,1a11.57,11.57,0,0,0-.11,1.17c0,4.67,0,9.35-.06,14,0,1.11.34,1.29,1.34,1.29q21,0,42,0c.72,0,1.44,0,2.15,0s.77-.17.76-.75c0-2.15,0-4.31-.06-6.46q0-13,0-26,0-16.41,0-32.81c0-1.88,0-3.75.07-5.63,0-.9-.23-1.12-1.12-1.12q-22,0-44,0c-1,0-1.2.25-1.19,1.19C236.72,185,236.7,190.75,236.7,196.5ZM128.26,243.62c0,2,0,4-.06,6,0,.89.19,1.15,1.11,1.14q22,0,44.11,0c.82,0,1.09-.18,1.09-1.05,0-5.07,0-10.14,0-15.22V196.54c0-5.75,0-11.51,0-17.27,0-1-.29-1.23-1.26-1.22q-16.06,0-32.14,0c-3.92,0-7.83,0-11.75,0-1,0-1.2.3-1.16,1.21.08,1.84,0,3.68.06,5.51,0,.36,0,.72,0,1.08v56.71C128.21,242.9,128.24,243.26,128.26,243.62Z"/><path class="cls-4" d="M123.9,256l56.36,0,26.86,0h76.37c1.24,0,2.48,0,3.72-.07l40.16,0c1.58,0,1.65,0,1.57,1.53-.28,5.38-.16,10.77-.22,16.16,0,1,.27,1.41,1.27,1.26a4.71,4.71,0,0,1,.84,0c2.75,0,2.71,0,2.71,2.7,0,.82-.44,1.09-1,1.39q-8.44,4.28-16.88,8.58l-21.86,11.18c-1.71.87-3.38,1.81-5.11,2.63a1.34,1.34,0,0,0-.95,1.55l-1.08,0H124.25l-1.07,0c.1-.68-.28-1-.84-1.25-5.19-2.65-10.36-5.33-15.54-8L81.68,280.85c-1.1-.56-2.16-1.21-3.28-1.71a1.59,1.59,0,0,1-1.06-1.75c0-2.39,0-2.39,2.4-2.4,2.18,0,2.18,0,2.18-2.23,0-5.16,0-10.31,0-15.46,0-1,.28-1.27,1.27-1.27C96.74,256.06,110.32,256,123.9,256Zm28.89,4.35c-8.63,0-17.27,0-25.9,0-1,0-1.19.25-1.18,1.19q.08,6,0,12.11c0,.89.2,1.12,1.11,1.11q26-.16,52-.24c.81,0,1.08-.19,1.07-1.05,0-3.95,0-7.91,0-11.86,0-1-.24-1.27-1.25-1.26C170.05,260.41,161.42,260.39,152.79,260.39Zm105.67,0c-8.55,0-17.1,0-25.65,0-.94,0-1.2.23-1.19,1.18.06,4,0,8,0,12,0,.77.19,1,1,1q25.69.09,51.41.24c.84,0,1.06-.2,1.05-1-.05-4-.06-8,0-12,0-1-.19-1.4-1.33-1.39C275.32,260.42,266.89,260.39,258.46,260.39Zm-52.57,0c-7.07,0-14.14,0-21.21,0-.91,0-1.13.23-1.12,1.12q.09,5.92,0,11.86c0,.93.23,1.19,1.17,1.18q11.69-.11,23.35-.09,9.46,0,18.94.09c.77,0,1-.19,1-1,0-3.95-.06-7.91,0-11.86,0-1-.16-1.34-1.27-1.33C219.79,260.42,212.84,260.39,205.89,260.39Zm101.13,0c-5.72,0-11.43,0-17.14,0-.93,0-1.24.23-1.23,1.2q.09,6,0,12c0,1,.34,1.23,1.3,1.24,6.63.08,13.25-.13,19.88.16,4.71.2,9.43,0,14.14.07,1,0,1.18-.35,1.18-1.24,0-4.08,0-8.15,0-12.23,0-1-.32-1.19-1.23-1.19C318.28,260.39,312.65,260.37,307,260.37Zm-203.18,0c-5.68,0-11.35,0-17,0-1,0-1.31.33-1.3,1.31,0,3.92,0,7.84,0,11.76,0,1.57,0,1.58,1.53,1.57q16.89-.12,33.79-.21c.9,0,1.16-.26,1.15-1.15,0-4,0-8,0-12,0-1-.24-1.3-1.25-1.29C115.11,260.4,109.47,260.37,103.84,260.37Z"/><path class="cls-5" d="M123.18,303l1.07,0H286.62l1.08,0c.74,1.66.68,3.47.93,5.22q1.85,12.81,3.56,25.66a50.62,50.62,0,0,1,.72,6H119.48c-.52,0-1,0-1.56-.05l3.33-24.4c.51-3.75,1-7.51,1.54-11.26C122.85,303.82,122.73,303.32,123.18,303Z"/><path class="cls-4" d="M228.44,250.69c-1.2,0-2.39,0-3.59,0h-39.8c-.6,0-1.2,0-1.8,0l.36-4.4q.27-3.19.56-6.41c.22-2.53.64-5,.63-7.59a8.18,8.18,0,0,0,.32-2.6q1.06-11.3,2.1-22.61.33-3.44.65-6.87c.19-2.13.41-4.27.53-6.41,0-.83.47-.85,1.09-.85q16.33,0,32.68,0c.64,0,1,.1,1.07.87a60.59,60.59,0,0,0,.7,6.15,21.12,21.12,0,0,0,.3,4.42c.82,9.29,1.71,18.58,2.58,27.87.15,1.77.29,3.55.46,5.32.2,2.16.46,4.32.65,6.48S228.27,248.48,228.44,250.69Z"/><path class="cls-3" d="M174.48,196.54v37.94a6.32,6.32,0,0,0-1.07,0l-24.09,4.88q-10.53,2.13-21.06,4.23c0-.36,0-.72,0-1.07V185.84c0-.36,0-.72,0-1.08q20.2,5.22,40.41,10.43A36.27,36.27,0,0,0,174.48,196.54Z"/><path class="cls-3" d="M236.84,234.34c-.28-.3-.19-.68-.19-1V197c0-.16,0-.32,0-.47a2,2,0,0,0,1.29-.1l44.91-11.6q0,16.41,0,32.81,0,13,0,26l-10.32-2.06Z"/><path class="cls-2" d="M223.94,200a60.59,60.59,0,0,1-.7-6.15c-.12-.77-.43-.87-1.07-.87q-16.35,0-32.68,0c-.62,0-1.05,0-1.09.85-.12,2.14-.34,4.28-.53,6.41L179.32,198c0-6.35,0-12.7,0-19,0-1,.52-.86,1.12-.86h35.82c4.91,0,9.82,0,14.73,0,.69,0,1.08.05,1.08.94-.05,6.31,0,12.62-.05,18.92Z"/><path class="cls-2" d="M282.9,184.8,238,196.4a2,2,0,0,1-1.29.1c0-5.75,0-11.51,0-17.26,0-.94.24-1.19,1.19-1.19q22,0,44,0c.89,0,1.16.22,1.12,1.12C282.88,181.05,282.92,182.92,282.9,184.8Z"/><path class="cls-2" d="M174.48,196.54a36.27,36.27,0,0,1-5.81-1.35q-20.21-5.19-40.41-10.43c0-1.83,0-3.67-.06-5.51,0-.91.18-1.22,1.16-1.21,3.92.07,7.83,0,11.75,0q16.06,0,32.14,0c1,0,1.27.2,1.26,1.22C174.45,185,174.48,190.79,174.48,196.54Z"/><path class="cls-2" d="M236.84,234.34l35.74,7.19,10.32,2.06c0,2.15,0,4.31.06,6.46,0,.58-.19.78-.76.75s-1.43,0-2.15,0q-21,0-42,0c-1,0-1.36-.18-1.34-1.29.08-4.66,0-9.34.06-14A11.57,11.57,0,0,1,236.84,234.34Z"/><path class="cls-2" d="M128.26,243.62q10.53-2.12,21.06-4.23l24.09-4.88a6.32,6.32,0,0,1,1.07,0c0,5.08,0,10.15,0,15.22,0,.87-.27,1.05-1.09,1.05q-22,0-44.11,0c-.92,0-1.15-.25-1.11-1.14C128.27,247.62,128.24,245.62,128.26,243.62Z"/><path class="cls-3" d="M179.32,198l8.55,2.24q-.31,3.43-.65,6.87-1,11.31-2.1,22.61a8.18,8.18,0,0,1-.32,2.6l-5.47,1q0-9.65,0-19.28C179.29,208.67,179.31,203.32,179.32,198Z"/><path class="cls-3" d="M223.94,200l8-2.05c0,.4.06.8.06,1.2q0,16.51,0,33c0,.4-.05.8-.08,1.19l-5.13-1.08c-.87-9.29-1.76-18.58-2.58-27.87A21.12,21.12,0,0,1,223.94,200Z"/><path class="cls-2" d="M179.33,233.3l5.47-1c0,2.55-.41,5.06-.63,7.59q-.28,3.21-.56,6.41l-.36,4.4c-1.26.05-2.86.52-3.69-.15s-.25-2.31-.26-3.53C179.29,242.44,179.32,237.87,179.33,233.3Z"/><path class="cls-2" d="M226.82,232.26l5.13,1.08c0,5.53,0,11.06.06,16.59,0,.62-.21.85-.83.81-.91-.05-1.83,0-2.74-.05-.17-2.21-.31-4.42-.51-6.63s-.45-4.32-.65-6.48C227.11,235.81,227,234,226.82,232.26Z"/><path class="cls-5" d="M152.79,260.39c8.63,0,17.26,0,25.89,0,1,0,1.26.26,1.25,1.26-.06,3.95-.05,7.91,0,11.86,0,.86-.26,1-1.07,1.05q-26,.07-52,.24c-.91,0-1.12-.22-1.11-1.11q.08-6.06,0-12.11c0-.94.23-1.2,1.18-1.19C135.52,260.41,144.16,260.39,152.79,260.39Z"/><path class="cls-5" d="M258.46,260.39c8.43,0,16.86,0,25.29,0,1.14,0,1.35.35,1.33,1.39-.06,4-.05,8,0,12,0,.85-.21,1.06-1.05,1q-25.71-.15-51.41-.24c-.8,0-1-.23-1-1,0-4,.05-8,0-12,0-.95.25-1.18,1.19-1.18C241.36,260.41,249.91,260.39,258.46,260.39Z"/><path class="cls-5" d="M205.89,260.39c7,0,13.9,0,20.85,0,1.11,0,1.29.33,1.27,1.33-.06,3.95,0,7.91,0,11.86,0,.79-.22,1-1,1q-9.47-.09-18.94-.09-11.67,0-23.35.09c-.94,0-1.18-.25-1.17-1.18q.09-5.93,0-11.86c0-.89.21-1.13,1.12-1.12C191.75,260.41,198.82,260.39,205.89,260.39Z"/><path class="cls-2" d="M307,260.37c5.63,0,11.26,0,16.9,0,.91,0,1.25.2,1.23,1.19,0,4.08,0,8.15,0,12.23,0,.89-.17,1.25-1.18,1.24-4.71-.06-9.43.13-14.14-.07-6.63-.29-13.25-.08-19.88-.16-1,0-1.31-.21-1.3-1.24q.09-6,0-12c0-1,.3-1.2,1.23-1.2C295.59,260.39,301.3,260.37,307,260.37Z"/><path class="cls-2" d="M103.84,260.37c5.63,0,11.27,0,16.91,0,1,0,1.27.31,1.25,1.29,0,4,0,8,0,12,0,.89-.25,1.15-1.15,1.15q-16.89.08-33.79.21c-1.53,0-1.53,0-1.53-1.57,0-3.92,0-7.84,0-11.76,0-1,.3-1.31,1.3-1.31C92.49,260.39,98.16,260.37,103.84,260.37Z"/></svg>